<svg width="36" height="36" viewBox="0 0 36 36" fill="none" xmlns="http://www.w3.org/2000/svg">
<g clip-path="url(#clip0_202_737)">
<path d="M13.0312 12C13.0312 9.25454 15.2545 7.03125 18 7.03125C20.7455 7.03125 22.9688 9.25454 22.9688 12C22.9688 14.7388 20.7446 16.9688 18 16.9688C15.2554 16.9688 13.0312 14.7388 13.0312 12ZM7.03125 27C7.03125 26.3792 7.33369 25.76 8.01218 25.134C8.69782 24.5013 9.6968 23.9334 10.884 23.4584C13.26 22.5078 16.1298 22.0312 18 22.0312C19.8702 22.0312 22.74 22.5078 25.116 23.4584C26.3032 23.9334 27.3022 24.5013 27.9878 25.134C28.6663 25.76 28.9688 26.3792 28.9688 27V28.9688H7.03125V27Z" stroke="#5E6168" stroke-width="2.0625"/>
</g>
<defs>
<clipPath id="clip0_202_737">
<rect width="36" height="36" fill="white"/>
</clipPath>
</defs>
</svg>
