<svg width="26" height="26" viewBox="0 0 26 26" fill="none" xmlns="http://www.w3.org/2000/svg">
<path d="M13 0C5.83155 0 0 5.83155 0 13C0 20.1684 5.83155 26 13 26C20.1684 26 26 20.1684 26 13C26 5.83155 20.1684 0 13 0ZM13 23.4839C7.21877 23.4839 2.51613 18.7812 2.51613 13C2.51613 7.21877 7.21877 2.51613 13 2.51613C18.7812 2.51613 23.4839 7.21877 23.4839 13C23.4839 18.7812 18.7812 23.4839 13 23.4839Z" fill="#5E6168"/>
<path d="M12.2933 8.89735C12.2933 7.01902 10.7319 5.4915 8.8119 5.4915C6.89193 5.4915 5.33054 7.01902 5.33054 8.89735C5.33054 10.7757 6.8928 12.3032 8.8119 12.3032C10.731 12.3032 12.2933 10.7765 12.2933 8.89735ZM7.94156 8.89735C7.94156 8.42819 8.33321 8.04588 8.8119 8.04588C9.29059 8.04588 9.68224 8.42819 9.68224 8.89735C9.68224 9.3665 9.29233 9.74881 8.8119 9.74881C8.33147 9.74881 7.94156 9.36736 7.94156 8.89735ZM17.1881 13.686C15.2681 13.686 13.7067 15.2127 13.7067 17.0918C13.7067 18.971 15.2681 20.4977 17.1881 20.4977C19.108 20.4977 20.6694 18.9702 20.6694 17.0918C20.6694 15.2135 19.1072 13.686 17.1881 13.686ZM17.1881 17.9433C16.964 17.9335 16.7524 17.8395 16.5974 17.6809C16.4423 17.5223 16.3558 17.3113 16.3558 17.0918C16.3558 16.8724 16.4423 16.6614 16.5974 16.5028C16.7524 16.3442 16.964 16.2502 17.1881 16.2404C17.4122 16.2502 17.6238 16.3442 17.7788 16.5028C17.9338 16.6614 18.0204 16.8724 18.0204 17.0918C18.0204 17.3113 17.9338 17.5223 17.7788 17.6809C17.6238 17.8395 17.4122 17.9335 17.1881 17.9433ZM18.0758 5.54599C17.9333 5.45264 17.7733 5.38773 17.6051 5.35501C17.4368 5.32228 17.2637 5.32238 17.0955 5.35529C16.9273 5.3882 16.7674 5.45327 16.625 5.54678C16.4825 5.64029 16.3604 5.76039 16.2655 5.9002L7.56209 18.6721C7.46475 18.8116 7.39666 18.9686 7.36176 19.1341C7.32686 19.2995 7.32584 19.47 7.35877 19.6358C7.3917 19.8016 7.45791 19.9594 7.55359 20.1C7.64926 20.2406 7.77249 20.3612 7.91615 20.4549C8.0598 20.5486 8.22102 20.6135 8.39048 20.6458C8.55994 20.6782 8.73427 20.6773 8.90338 20.6432C9.07249 20.6092 9.23302 20.5427 9.37568 20.4476C9.51833 20.3524 9.64028 20.2305 9.73447 20.089L18.4379 7.31703C18.6299 7.0352 18.6996 6.69029 18.6317 6.35816C18.5638 6.02603 18.3639 5.73389 18.0758 5.54599Z" fill="#5E6168"/>
</svg>
