<svg width="29" height="26" viewBox="0 0 29 26" fill="none" xmlns="http://www.w3.org/2000/svg">
<path d="M15.7187 4.22207L14.4997 5.92104L13.281 4.22175C12.0976 2.57147 10.1745 1.5 8.00034 1.5C4.41028 1.5 1.5 4.4103 1.5 8.0005C1.5 8.49868 1.56316 8.99049 1.67652 9.47701L1.68831 9.52759L1.69657 9.57887C2.18616 12.6186 4.16784 15.9012 6.8074 18.722C9.26192 21.345 12.1242 23.3965 14.5 24.3897C16.8754 23.3965 19.7379 21.345 22.1924 18.722C24.832 15.9012 26.8133 12.6188 27.3017 9.57938L27.3103 9.52589L27.3228 9.47316C27.4369 8.98923 27.5 8.49861 27.5 8.0005C27.5 4.4102 24.5896 1.5 21.0005 1.5C18.8256 1.5 16.9032 2.57136 15.7187 4.22207Z" stroke="#5E6168" stroke-width="3"/>
</svg>
