<svg width="34" height="34" viewBox="0 0 34 34" fill="none" xmlns="http://www.w3.org/2000/svg">
<path d="M21.0464 29.4287C21.0464 30.3837 21.8224 31.1597 22.7842 31.1667M21.0464 29.4287L29.1899 11.2816C29.9938 11.9492 30.4583 12.9361 30.4583 13.9766V26.3182C30.4583 27.6062 29.9421 28.8414 29.0235 29.751C28.1049 30.6606 26.8595 31.17 25.5621 31.1667H22.7842M21.0464 29.4287V25.0966M21.0464 29.4287V25.0966M22.7842 31.1667L22.7968 29.4288V29.4287L22.7972 29.362C22.7996 29.3621 22.8065 29.3629 22.8145 29.3663C22.8213 29.3692 22.8266 29.373 22.8307 29.3771C22.8349 29.3813 22.84 29.3879 22.8443 29.3981C22.8491 29.4094 22.8511 29.421 22.8511 29.4287M22.7842 31.1667L22.8511 29.4287M22.8511 29.4287V29.4288V29.4287ZM19.0295 23.0943H14.9578H19.0295ZM19.0295 23.0943C20.1434 23.0943 21.0464 23.9907 21.0464 25.0966M19.0295 23.0943L21.0464 25.0966M18.6304 5.20192L28.0494 12.6805C28.4348 13.0067 28.6536 13.4809 28.6536 13.9766V26.3182C28.6536 27.1226 28.3314 27.8966 27.7537 28.4687C27.1755 29.0412 26.3889 29.3641 25.5667 29.362H25.5621H22.8511V25.0966C22.8511 22.9818 21.1278 21.2896 19.0295 21.2896H14.9578V21.2895L14.9465 21.2896C12.8575 21.3026 11.1489 22.9912 11.1489 25.0966C11.1489 25.0966 11.1489 25.0966 11.1489 25.0966V27.6366H11.0981L11.0982 29.362H8.43791C6.71822 29.362 5.34635 27.9813 5.34635 26.3056V14.0017C5.36337 13.4989 5.60488 13.0253 6.01222 12.7119L6.02593 12.7013L6.03943 12.6905L15.2738 5.29817L15.2967 5.27987L15.3189 5.26083C16.2629 4.45355 17.6565 4.42819 18.6299 5.20158L18.6304 5.20192Z" fill="#202020" stroke="#202020" stroke-width="3.60938"/>
</svg>
