<svg width="27" height="27" viewBox="0 0 27 27" fill="none" xmlns="http://www.w3.org/2000/svg">
<g clip-path="url(#clip0_55_2426)">
<path d="M23.625 6.75H20.25C20.25 4.95979 19.5388 3.2429 18.273 1.97703C17.0071 0.711159 15.2902 0 13.5 0C11.7098 0 9.9929 0.711159 8.72703 1.97703C7.46116 3.2429 6.75 4.95979 6.75 6.75H3.375C2.47989 6.75 1.62145 7.10558 0.988515 7.73851C0.355579 8.37145 0 9.22989 0 10.125L0 21.375C0.00178634 22.8663 0.594992 24.296 1.6495 25.3505C2.704 26.405 4.13371 26.9982 5.625 27H21.375C22.8663 26.9982 24.296 26.405 25.3505 25.3505C26.405 24.296 26.9982 22.8663 27 21.375V10.125C27 9.22989 26.6444 8.37145 26.0115 7.73851C25.3786 7.10558 24.5201 6.75 23.625 6.75ZM13.5 2.25C14.6935 2.25 15.8381 2.72411 16.682 3.56802C17.5259 4.41193 18 5.55653 18 6.75H9C9 5.55653 9.47411 4.41193 10.318 3.56802C11.1619 2.72411 12.3065 2.25 13.5 2.25ZM24.75 21.375C24.75 22.2701 24.3944 23.1286 23.7615 23.7615C23.1286 24.3944 22.2701 24.75 21.375 24.75H5.625C4.72989 24.75 3.87145 24.3944 3.23851 23.7615C2.60558 23.1286 2.25 22.2701 2.25 21.375V10.125C2.25 9.82663 2.36853 9.54048 2.5795 9.3295C2.79048 9.11853 3.07663 9 3.375 9H6.75V11.25C6.75 11.5484 6.86853 11.8345 7.0795 12.0455C7.29048 12.2565 7.57663 12.375 7.875 12.375C8.17337 12.375 8.45952 12.2565 8.6705 12.0455C8.88147 11.8345 9 11.5484 9 11.25V9H18V11.25C18 11.5484 18.1185 11.8345 18.3295 12.0455C18.5405 12.2565 18.8266 12.375 19.125 12.375C19.4234 12.375 19.7095 12.2565 19.9205 12.0455C20.1315 11.8345 20.25 11.5484 20.25 11.25V9H23.625C23.9234 9 24.2095 9.11853 24.4205 9.3295C24.6315 9.54048 24.75 9.82663 24.75 10.125V21.375Z" fill="#202020"/>
</g>
<defs>
<clipPath id="clip0_55_2426">
<rect width="27" height="27" fill="white"/>
</clipPath>
</defs>
</svg>
